<?xml version="1.0" standalone="no"?>
<!DOCTYPE svg PUBLIC "-//W3C//DTD SVG 20010904//EN"
 "http://www.w3.org/TR/2001/REC-SVG-20010904/DTD/svg10.dtd">
<svg version="1.0" xmlns="http://www.w3.org/2000/svg"
 width="355.000000pt" height="100.000000pt" viewBox="0 0 355.000000 100.000000"
 preserveAspectRatio="xMidYMid meet">

<g transform="translate(0.000000,100.000000) scale(0.100000,-0.100000)"
fill="#000000" stroke="none">
<path d="M40 500 l0 -480 1740 0 1740 0 0 480 0 480 -1740 0 -1740 0 0 -480z
m3450 0 l0 -450 -1715 0 -1715 0 0 450 0 450 1715 0 1715 0 0 -450z"/>
<path d="M130 500 l0 -390 825 0 825 0 0 390 0 390 -825 0 -825 0 0 -390z
m510 239 c0 -6 7 -17 16 -26 8 -9 14 -25 12 -37 -2 -16 -11 -22 -40 -24 l-38
-3 0 -150 0 -149 -30 0 c-17 0 -33 6 -36 14 -3 8 -14 16 -25 19 -18 5 -19 15
-19 135 0 122 -1 131 -20 137 -11 3 -20 11 -20 16 0 5 -7 9 -15 9 -10 0 -15
11 -15 35 l0 35 115 0 c75 0 115 -4 115 -11z m301 -11 c10 -13 18 -35 19 -50
l0 -28 -85 0 c-78 0 -85 -2 -85 -20 0 -18 7 -20 56 -20 47 0 57 -3 61 -20 3
-11 9 -20 14 -20 5 0 9 -16 9 -35 l0 -35 -70 0 c-63 0 -70 -2 -70 -20 0 -18 7
-20 71 -20 62 0 71 -2 76 -20 3 -11 9 -20 14 -20 5 0 9 -16 9 -35 l0 -35 -120
0 c-98 0 -122 3 -126 15 -4 8 -12 15 -20 15 -11 0 -14 34 -14 185 l0 185 121
0 c113 0 122 -1 140 -22z m156 -11 c11 -17 41 -72 65 -120 l44 -89 57 121 58
121 39 0 c28 0 40 -4 40 -14 0 -8 7 -16 15 -20 13 -4 15 -35 15 -186 l0 -180
-35 0 c-22 0 -38 6 -41 15 -4 8 -12 15 -20 15 -10 0 -14 14 -15 48 l0 47 -27
-52 c-24 -48 -29 -53 -60 -53 -39 0 -69 26 -105 93 l-22 42 -3 -77 -3 -78 -30
0 c-16 0 -32 6 -35 14 -3 8 -14 16 -25 19 -18 5 -19 16 -19 179 0 96 3 178 7
181 3 4 22 7 42 7 29 0 40 -6 58 -33z m523 -171 c0 -26 -16 -36 -60 -36 -52 0
-61 43 -10 53 59 11 70 8 70 -17z m136 9 c14 -35 -55 -61 -95 -36 -21 13 -6
39 26 44 54 8 64 7 69 -8z"/>
<path d="M2950 749 c-37 -15 -58 -37 -70 -75 -10 -29 -8 -41 9 -77 24 -48 83
-97 118 -97 31 0 32 -36 1 -46 -17 -5 -27 0 -43 20 -15 18 -30 26 -53 26 -29
0 -32 -3 -32 -31 0 -24 11 -42 44 -75 39 -39 48 -44 90 -44 26 0 59 6 75 14
92 48 51 201 -62 235 -48 15 -54 26 -24 45 12 8 23 5 46 -12 38 -28 91 -30 91
-3 0 27 -40 82 -79 108 -36 24 -70 28 -111 12z"/>
<path d="M2097 743 c-15 -15 -7 -55 13 -60 19 -5 20 -14 20 -119 0 -107 -1
-114 -20 -114 -29 0 -26 -49 4 -77 20 -19 35 -23 95 -23 l71 0 0 35 c0 19 -3
35 -7 35 -19 0 -33 61 -33 142 0 81 2 88 20 88 16 0 20 7 20 30 0 53 -25 70
-106 70 -39 0 -74 -3 -77 -7z"/>
<path d="M2309 723 c-1 -16 -1 -98 0 -183 1 -114 4 -156 14 -159 6 -2 16 -10
20 -17 4 -8 21 -14 37 -14 l29 0 3 108 3 107 64 -89 c76 -107 96 -125 139
-126 l32 0 0 174 c0 142 -3 177 -15 190 -8 8 -15 19 -15 25 0 6 -18 11 -40 11
l-40 0 0 -107 0 -106 -41 59 c-101 144 -110 154 -151 154 -34 0 -38 -3 -39
-27z"/>
<path d="M2680 715 c0 -23 5 -35 14 -35 20 0 26 -32 26 -137 0 -93 0 -93 -25
-93 -21 0 -25 -5 -25 -27 0 -16 10 -38 24 -50 20 -19 35 -23 95 -23 l71 0 0
35 c0 19 -3 35 -7 35 -19 0 -33 61 -33 142 0 81 2 88 20 88 16 0 20 7 20 35 0
19 -4 35 -10 35 -5 0 -10 7 -10 15 0 12 -16 15 -80 15 l-80 0 0 -35z"/>
<path d="M3177 743 c-4 -3 -7 -84 -7 -180 0 -156 2 -174 18 -180 9 -4 22 -13
27 -20 8 -10 34 -13 105 -11 88 3 95 5 98 24 2 12 -3 28 -11 35 -7 8 -16 22
-20 32 -5 13 -18 17 -57 17 l-50 0 0 130 c0 80 -4 130 -10 130 -5 0 -10 7 -10
15 0 11 -11 15 -38 15 -21 0 -42 -3 -45 -7z"/>
<path d="M1835 561 c-21 -4 -30 -12 -30 -26 0 -27 65 -34 89 -9 33 32 5 49
-59 35z"/>
<path d="M1975 561 c-38 -8 -43 -44 -6 -49 43 -7 71 6 71 33 0 26 -8 28 -65
16z"/>
</g>
</svg>
