<?xml version="1.0" standalone="no"?>
<!DOCTYPE svg PUBLIC "-//W3C//DTD SVG 20010904//EN"
 "http://www.w3.org/TR/2001/REC-SVG-20010904/DTD/svg10.dtd">
<svg version="1.0" xmlns="http://www.w3.org/2000/svg"
 width="352.000000pt" height="101.000000pt" viewBox="0 0 352.000000 101.000000"
 preserveAspectRatio="xMidYMid meet">

<g transform="translate(0.000000,101.000000) scale(0.100000,-0.100000)"
fill="#000000" stroke="none">
<path d="M20 500 l0 -480 1740 0 1740 0 0 480 0 480 -1740 0 -1740 0 0 -480z
m3450 0 l0 -450 -1715 0 -1715 0 0 450 0 450 1715 0 1715 0 0 -450z"/>
<path d="M110 500 l0 -390 825 0 825 0 0 390 0 390 -825 0 -825 0 0 -390z
m473 208 c18 -24 54 -72 78 -107 l44 -64 3 106 3 107 39 0 c29 0 40 -4 40 -15
0 -8 5 -15 10 -15 6 0 10 -68 10 -185 l0 -185 -33 0 c-37 0 -61 23 -147 144
l-49 69 -3 -104 -3 -104 -33 -3 c-22 -2 -34 2 -38 12 -3 9 -12 16 -20 16 -11
0 -14 34 -14 185 l0 185 39 0 c35 0 44 -5 74 -42z m542 25 c6 -17 7 -17 16 0
9 14 25 17 115 17 97 0 107 -2 125 -22 10 -13 18 -35 19 -50 0 -26 -3 -28 -40
-28 l-40 0 0 -150 0 -150 -30 0 c-18 0 -33 6 -36 15 -4 8 -12 15 -20 15 -11 0
-14 26 -14 134 l0 134 -25 6 c-14 4 -25 11 -25 16 0 6 -4 10 -10 10 -5 0 -10
-7 -10 -15 0 -12 -16 -15 -85 -15 -68 0 -87 -3 -92 -15 -8 -23 0 -27 59 -33
59 -6 87 -29 88 -74 l0 -28 -75 0 -75 0 0 -75 0 -75 -30 0 c-18 0 -33 6 -36
15 -4 8 -12 15 -20 15 -11 0 -14 34 -14 185 l0 185 124 0 c109 0 125 -2 131
-17z m475 -187 c0 -26 -16 -36 -60 -36 -52 0 -61 43 -10 53 59 11 70 8 70 -17z
m136 9 c14 -35 -55 -61 -95 -36 -21 13 -6 39 26 44 54 8 64 7 69 -8z"/>
<path d="M2164 746 c-43 -19 -64 -53 -64 -103 0 -37 6 -50 41 -88 27 -29 53
-47 75 -51 24 -4 34 -12 34 -24 0 -36 -59 -32 -74 5 -3 9 -18 15 -41 15 -33 0
-35 -2 -35 -32 0 -24 10 -41 45 -75 40 -38 50 -43 93 -43 86 0 135 53 124 131
-7 46 -67 108 -118 120 -38 10 -42 13 -33 30 13 25 40 24 67 -1 12 -11 35 -20
52 -20 25 0 30 4 30 25 0 28 -50 89 -91 111 -34 17 -64 17 -105 0z"/>
<path d="M2835 741 c-67 -30 -98 -97 -76 -164 7 -20 32 -54 56 -76 l45 -41
-45 0 -45 0 0 -40 c0 -28 4 -40 14 -40 8 0 16 -7 20 -15 4 -12 28 -15 126 -15
l120 0 0 30 c0 18 -6 33 -15 36 -8 4 -15 15 -15 25 0 11 -7 19 -17 19 -14 0
-13 3 5 16 60 41 70 138 22 200 -33 42 -100 84 -134 84 -12 0 -39 -9 -61 -19z
m114 -109 c17 -32 -9 -67 -49 -67 -28 0 -36 4 -38 22 -7 46 66 84 87 45z"/>
<path d="M2400 565 c0 -151 3 -185 14 -185 8 0 17 -7 20 -16 4 -10 16 -14 38
-12 l33 3 3 73 3 72 43 0 c50 0 56 -8 56 -76 0 -31 4 -44 14 -44 8 0 16 -7 20
-15 3 -9 18 -15 36 -15 l30 0 0 185 c0 117 -4 185 -10 185 -5 0 -10 7 -10 15
0 11 -11 15 -40 15 l-40 0 0 -70 0 -70 -50 0 -50 0 0 44 c0 26 -6 51 -15 60
-8 8 -15 19 -15 25 0 6 -18 11 -40 11 l-40 0 0 -185z"/>
<path d="M3100 717 c0 -18 11 -48 25 -69 l25 -37 -23 -3 c-21 -3 -22 -8 -25
-111 -2 -95 -1 -108 15 -114 10 -4 22 -12 26 -20 4 -7 21 -13 37 -13 l30 0 0
75 0 75 40 0 c82 0 140 47 140 113 0 32 -38 86 -79 114 -29 20 -47 23 -122 23
l-89 0 0 -33z m174 -76 c3 -5 -1 -15 -10 -22 -13 -10 -17 -10 -25 2 -5 8 -9
17 -9 22 0 10 38 9 44 -2z"/>
<path d="M1815 561 c-21 -4 -30 -12 -30 -26 0 -27 65 -34 89 -9 33 32 5 49
-59 35z"/>
<path d="M1955 561 c-38 -8 -43 -44 -6 -49 43 -7 71 6 71 33 0 26 -8 28 -65
16z"/>
</g>
</svg>
